<svg xmlns="http://www.w3.org/2000/svg" width="44.13" height="48.001" viewBox="0 0 44.13 48.001">
  <g>
    <path d="M43.906,8.575a.719.719,0,0,0-.535-.2c-.122.008-12.523.441-20.781-8.16a.752.752,0,0,0-1.05,0C13.3,8.8.885,8.38.759,8.374a.75.75,0,0,0-.534.2A.723.723,0,0,0,0,9.1C0,39.063,21.582,47.864,21.8,47.95a.714.714,0,0,0,.53,0c.218-.086,21.8-8.887,21.8-38.85A.726.726,0,0,0,43.906,8.575Zm-21.841,37.9C19.656,45.391,1.785,36.4,1.459,9.834c2.87-.027,13.054-.67,20.606-8.082C29.617,9.164,39.8,9.807,42.671,9.834,42.345,36.4,24.474,45.392,22.065,46.479Z" fill="#1a171b"/>
    <path d="M21.546,7.968c-5.545,5.646-13.918,5.369-14,5.371a.7.7,0,0,0-.534.2.733.733,0,0,0-.224.525c0,20.143,14.866,26.07,15.016,26.127a.714.714,0,0,0,.52,0c.15-.057,15.016-5.984,15.016-26.127a.731.731,0,0,0-.224-.525.687.687,0,0,0-.534-.2c-.084,0-8.455.275-14-5.371A.746.746,0,0,0,21.546,7.968Zm14.333,6.826c-.315,17.313-11.843,23.072-13.81,23.93-1.884-.848-13.5-6.783-13.819-23.93,2.231-.053,8.815-.621,13.814-5.3C27.065,14.173,33.649,14.741,35.879,14.794Z" fill="#1a171b"/>
    <path d="M16.973,19.542a5.066,5.066,0,0,0,1.87,3.934l-2.14,6.9a.726.726,0,0,0,.7.943h9.335a.726.726,0,0,0,.7-.943l-2.141-6.895a5.09,5.09,0,1,0-8.314-3.935Zm8.729,0a3.624,3.624,0,0,1-1.661,3.045.729.729,0,0,0-.3.826l2,6.447h-7.36l2-6.447a.727.727,0,0,0-.3-.826A3.634,3.634,0,1,1,25.7,19.542Z" fill="#1a171b"/>
  </g>
</svg>
