<svg width="33" height="32" viewBox="0 0 33 32" fill="none" xmlns="http://www.w3.org/2000/svg">
<path d="M10.8333 2.66666V6.66666H9.83333C9.48667 6.66666 9.15333 6.67999 8.83333 6.73332V2.66666C8.83333 2.11999 9.28667 1.66666 9.83333 1.66666C10.38 1.66666 10.8333 2.11999 10.8333 2.66666Z" fill="#202020"/>
<path d="M23.1667 6.66666H9.83333C9.48667 6.66666 9.15333 6.67999 8.83333 6.73332C5.39333 7.13332 3.16667 9.67999 3.16667 13.3333V22.6667C3.16667 26.6667 5.83333 29.3333 9.83333 29.3333H23.1667C27.1667 29.3333 29.8333 26.6667 29.8333 22.6667V13.3333C29.8333 9.33332 27.1667 6.66666 23.1667 6.66666ZM11.0067 21.3333C9.16667 21.3333 7.67333 19.84 7.67333 18C7.67333 16.16 9.16667 14.6667 11.0067 14.6667C12.8467 14.6667 14.34 16.16 14.34 18C14.34 19.84 12.8467 21.3333 11.0067 21.3333ZM19.6733 21.6667H19.0067C18.46 21.6667 18.0067 21.2133 18.0067 20.6667C18.0067 20.12 18.46 19.6667 19.0067 19.6667H19.6733C20.22 19.6667 20.6733 20.12 20.6733 20.6667C20.6733 21.2133 20.22 21.6667 19.6733 21.6667ZM24.34 21.6667H23.6733C23.1267 21.6667 22.6733 21.2133 22.6733 20.6667C22.6733 20.12 23.1267 19.6667 23.6733 19.6667H24.34C24.8867 19.6667 25.34 20.12 25.34 20.6667C25.34 21.2133 24.8867 21.6667 24.34 21.6667ZM24.34 16.3333H19.0067C18.46 16.3333 18.0067 15.88 18.0067 15.3333C18.0067 14.7867 18.46 14.3333 19.0067 14.3333H24.34C24.8867 14.3333 25.34 14.7867 25.34 15.3333C25.34 15.88 24.8867 16.3333 24.34 16.3333Z" fill="#202020"/>
</svg>
